<svg height="120" viewBox="0 0 120 120" width="120" xmlns="http://www.w3.org/2000/svg"><g fill="#fff"><path d="m118.673143 110.967429h-.004898-116.38922459c-.60857143 0-1.10204082-.49347-1.10204082-1.102041 0-32.6488166 26.63755101-59.2106941 59.37942861-59.2106941 15.729551 0 30.5703673 6.1653061 41.7884078 17.3603265 11.211674 11.188898 17.397551 26.011102 17.42547 41.7448166.003183.034775.004898.069796.004898.105551 0 .608816-.49347 1.102041-1.102041 1.102041zm-115.28155116-2.204082h114.16408116c-.589714-30.9266939-25.9322444-55.9045715-56.9992648-55.9045715-31.1571429 0-56.57338779 24.9778776-57.16481636 55.9045715z"/><path d="m118.834041 119.438939h-117.5502859c-.60857143 0-1.10204081-.49347-1.10204081-1.102041s.49346938-1.102041 1.10204081-1.102041h117.5502859c.608571 0 1.102041.49347 1.102041 1.102041s-.493225 1.102041-1.102041 1.102041z"/><path d="m96.4217143 83.740898c-.372 0-.7349388-.1885715-.9426123-.5294694-7.5249796-12.3715102-21.160653-20.0566531-35.5861224-20.0566531-.6085714 0-1.1020408-.4934694-1.1020408-1.1020408s.4934694-1.1020408 1.1020408-1.1020408c7.6393469 0 15.1782857 2.0167347 21.8020408 5.8324898 6.4168163 3.6967347 11.834449 8.9813877 15.6673469 15.2826122.3161633.5201633.1511021 1.1980408-.3688163 1.514449-.1790204.1087347-.376653.1606531-.5718367.1606531z"/><path d="m59.229551 52.8587755c-6.2982857 0-11.232-5.006449-11.232-11.3980408 0-6.295102 4.9337143-11.2261225 11.232-11.2261225 6.2831021 0 11.3948572 5.0358368 11.3948572 11.2261225 0 3.0891429-1.1919184 5.9693877-3.3563266 8.1107755-2.1423673 2.1198367-4.9973877 3.2872653-8.0385306 3.2872653zm0-20.4198367c-5.0622857 0-9.0279183 3.9629388-9.0279183 9.0220408 0 5.1553469 3.9653877 9.1939592 9.0279183 9.1939592 5.1538776 0 9.1907755-4.0383674 9.1907755-9.1939592.0002449-4.9748572-4.1228571-9.0220408-9.1907755-9.0220408z"/><path d="m20.7088163 88.0591837h-4.8134694c-.6085714 0-1.1020408-.4934694-1.1020408-1.1020408 0-.6085715.4934694-1.1020409 1.1020408-1.1020409h4.8134694c.6085715 0 1.1020408.4934694 1.1020408 1.1020409 0 .6085714-.4934693 1.1020408-1.1020408 1.1020408z"/><path d="m23.697551 97.8521633h-4.8137143c-.6085714 0-1.1020408-.4934694-1.1020408-1.1020409 0-.6085714.4934694-1.1020408 1.1020408-1.1020408h4.8137143c.6085714 0 1.1020408.4934694 1.1020408 1.1020408 0 .6085715-.4934694 1.1020409-1.1020408 1.1020409z"/><path d="m34.6569796 90.216h-4.6503674c-.6085714 0-1.1020408-.4934694-1.1020408-1.1020408s.4934694-1.1020408 1.1020408-1.1020408h4.6503674c.6085714 0 1.1020408.4934694 1.1020408 1.1020408s-.4934694 1.1020408-1.1020408 1.1020408z"/><path d="m40.4684082 100.843347h-4.6503674c-.6085714 0-1.1020408-.493469-1.1020408-1.1020409 0-.6085714.4934694-1.1020408 1.1020408-1.1020408h4.6503674c.6085714 0 1.1020408.4934694 1.1020408 1.1020408 0 .6085719-.4934694 1.1020409-1.1020408 1.1020409z"/><path d="m30.6697959 81.2466122h-4.6474286c-.6085714 0-1.1020408-.4934693-1.1020408-1.1020408 0-.6085714.4934694-1.1020408 1.1020408-1.1020408h4.6474286c.6085714 0 1.1020408.4934694 1.1020408 1.1020408 0 .6085715-.4932245 1.1020408-1.1020408 1.1020408z"/><path d="m43.9545306 77.7636735h-4.8164082c-.6085714 0-1.1020408-.4934694-1.1020408-1.1020408 0-.6085715.4934694-1.1020409 1.1020408-1.1020409h4.8164082c.6085714 0 1.1020408.4934694 1.1020408 1.1020409 0 .6085714-.4932245 1.1020408-1.1020408 1.1020408z"/><path d="m48.7677551 88.0591837h-4.6476735c-.6085714 0-1.1020408-.4934694-1.1020408-1.1020408 0-.6085715.4934694-1.1020409 1.1020408-1.1020409h4.6476735c.6085714 0 1.1020408.4934694 1.1020408 1.1020409 0 .6085714-.4932245 1.1020408-1.1020408 1.1020408z"/><path d="m51.4246531 97.6858776h-4.8132245c-.6085715 0-1.1020408-.4934694-1.1020408-1.1020409 0-.6085714.4934693-1.1020408 1.1020408-1.1020408h4.8134694c.6085714 0 1.1020408.4934694 1.1020408 1.1020408 0 .6085715-.4934694 1.1020409-1.1022857 1.1020409z"/><path d="m36.3156735 36.4197551c-.6085715 0-1.1020408-.4934694-1.1020408-1.1020408v-18.0979592c0-.6085714.4934693-1.1020408 1.1020408-1.1020408.6085714 0 1.1020408.4934694 1.1020408 1.1020408v18.0979592c0 .6088163-.4934694 1.1020408-1.1020408 1.1020408z"/><path d="m77.493551 31.7752653c-.6085714 0-1.1020408-.4934694-1.1020408-1.1020408v-12.9555918c0-.6085715.4934694-1.1020409 1.1020408-1.1020409s1.1020408.4934694 1.1020408 1.1020409v12.9555918c0 .6085714-.4934694 1.1020408-1.1020408 1.1020408z"/><path d="m94.4272653 49.701551c-.6085714 0-1.1020408-.4934694-1.1020408-1.1020408v-15.2723265c0-.6085715.4934694-1.1020408 1.1020408-1.1020408s1.1020408.4934693 1.1020408 1.1020408v15.2723265c0 .6085714-.4934694 1.1020408-1.1020408 1.1020408z"/><path d="m19.2159184 54.0200816c-.6085715 0-1.1020408-.4934694-1.1020408-1.1020408v-18.0977143c0-.6085714.4934693-1.1020408 1.1020408-1.1020408.6085714 0 1.1020408.4934694 1.1020408 1.1020408v18.0977143c0 .6085714-.4934694 1.1020408-1.1020408 1.1020408z"/><path d="m59.3953469 17.6586122c-.6085714 0-1.1020408-.4934693-1.1020408-1.1020408v-15.2723265c0-.60857143.4934694-1.10204082 1.1020408-1.10204082.6085715 0 1.1020409.49346939 1.1020409 1.10204082v15.2723265c0 .6085715-.4932245 1.1020408-1.1020409 1.1020408z"/></g></svg>